<?xml version="1.0" encoding="utf-8"?>
<!-- Generator: Adobe Illustrator 23.0.0, SVG Export Plug-In . SVG Version: 6.00 Build 0)  -->
<svg version="1.1" id="Layer_1" xmlns="http://www.w3.org/2000/svg" xmlns:xlink="http://www.w3.org/1999/xlink" x="0px" y="0px"
	 viewBox="0 0 1366 768" style="enable-background:new 0 0 1366 768;" xml:space="preserve">
<style type="text/css">
	.st0{fill:#2C3A47;}
	.st1{fill:#FFFFFF;}
</style>
<g>
	<g>
		<path class="st0" d="M806.95,745.9c0.28-102.5-65.11-185.78-146.04-185.99s-146.77,82.7-147.04,185.21"/>
	</g>
	<g>
		<circle class="st0" cx="660.4" cy="305.61" r="258.98"/>
	</g>
	<g>
		<path d="M693.33,564.59c-72.45,0-140.57-28.21-191.8-79.45c-51.23-51.23-79.45-119.35-79.45-191.8s28.21-140.57,79.45-191.8
			S620.88,22.1,693.33,22.1s140.57,28.21,191.8,79.45c51.23,51.23,79.45,119.35,79.45,191.8s-28.21,140.57-79.45,191.8
			C833.9,536.37,765.78,564.59,693.33,564.59z M693.33,46.63c-136.04,0-246.72,110.68-246.72,246.72
			c0,136.04,110.68,246.72,246.72,246.72c136.04,0,246.72-110.68,246.72-246.72C940.05,157.3,829.37,46.63,693.33,46.63z"/>
	</g>
	<g>
		<path class="st1" d="M760.53,303.15H605.47c-4.13,0-7.47-4.39-7.47-9.81c0-5.42,3.35-9.81,7.47-9.81h155.05
			c4.13,0,7.47,4.39,7.47,9.81C768,298.76,764.65,303.15,760.53,303.15z"/>
	</g>
	<g>
		<path d="M855.76,733.67l-24.53-0.07c0.13-46.83-14.06-90.78-39.95-123.75c-25.22-32.11-58.55-49.85-93.86-49.95
			c-0.1,0-0.19,0-0.29,0c-35.21,0-68.52,17.55-93.84,49.44c-26.07,32.83-40.49,76.7-40.62,123.53l-24.53-0.07
			c0.14-52.32,16.45-101.59,45.93-138.72c30.07-37.88,70.21-58.72,113.05-58.72c0.12,0,0.24,0,0.36,0
			c42.98,0.12,83.14,21.19,113.09,59.33C839.85,632,855.9,681.35,855.76,733.67z"/>
	</g>
	<g>
		<path class="st1" d="M656.26,184.85c2.75-2.75,7.22-2.75,9.98,0l103.49,103.49c2.75,2.75,2.75,7.22,0,9.98
			c-2.75,2.75-7.22,2.75-9.98,0L656.26,194.82C653.51,192.07,653.51,187.6,656.26,184.85z"/>
	</g>
	<g>
		<path class="st1" d="M769.74,288.37c-2.75-2.75-7.22-2.75-9.98,0L656.27,391.86c-2.75,2.75-2.75,7.22,0,9.98
			c2.75,2.75,7.22,2.75,9.98,0l103.49-103.49C772.49,295.59,772.49,291.12,769.74,288.37z"/>
	</g>
</g>
</svg>
