<svg id="Layer_1" data-name="Layer 1" xmlns="http://www.w3.org/2000/svg" viewBox="0 0 545.78 496.75"><title>Logo</title><path d="M208.23,239.17a3,3,0,0,1-1.79-.57c-12.93-9.38-19-20.3-17.65-31.55,1.67-13.61,14.43-26.27,35.94-35.65,37.4-16.31,98.25-16.31,135.65,0,15.29,6.67,23.71,15.78,23.71,25.64s-8.42,19-23.71,25.64c-24.18,10.54-63.52,10.54-87.71,0-10.17-4.44-15.77-10.58-15.77-17.28s5.6-12.83,15.77-17.27c15.72-6.86,41.3-6.86,57,0,6.9,3,10.69,7.24,10.69,11.92S336.59,209,329.69,212c-10.48,4.57-26.9,4.57-37.38,0a2.56,2.56,0,0,1-1.37-3.54,3,3,0,0,1,3.84-1.27c8.79,3.83,23.65,3.83,32.44,0,4.7-2,7.39-4.64,7.39-7.11s-2.69-5.06-7.39-7.11c-14.36-6.26-37.72-6.26-52.07,0-7.93,3.45-12.47,8-12.47,12.46s4.54,9,12.47,12.47c22.81,9.95,59.94,9.95,82.76,0,13.16-5.74,20.41-13.14,20.41-20.83s-7.25-15.09-20.41-20.83c-36-15.71-94.67-15.71-130.71,0-19.63,8.56-31.23,19.73-32.67,31.43-1.15,9.34,4.21,18.6,15.48,26.78a2.53,2.53,0,0,1,.49,3.74A3,3,0,0,1,208.23,239.17Z" transform="translate(-13.09 -10.26)" style="fill:#eb4847"/><path d="M103.94,143.29A7.24,7.24,0,0,1,97.2,139a6.51,6.51,0,0,1,4.15-8.6C147.54,114.06,327.67,14.58,329.49,13.58l6-3.32,3.78,5.44c39.3,56.53,131,101.18,131.92,101.63a6.41,6.41,0,0,1,3.05,9,7.55,7.55,0,0,1-9.75,2.81C460.72,127.29,374,85,331,28.24c-32.17,17.7-181.41,99.34-224.49,114.6A7.8,7.8,0,0,1,103.94,143.29Z" transform="translate(-13.09 -10.26)" style="fill:#3f3f3f"/><path d="M157.37,121.33H142.93V71.64a10.57,10.57,0,0,1,6.18-9.47l33.32-16.06a12.13,12.13,0,0,1,11.12.32,10.45,10.45,0,0,1,5.56,9.15V96.92H184.67V60.05L157.37,73.2Z" transform="translate(-13.09 -10.26)" style="fill:#3f3f3f"/><path d="M437.16,53,387.81,239.67a2.15,2.15,0,0,1-2.58,1.45,2,2,0,0,1-1.6-2.26L420.2,49.66c.84-4.35,5.34-7.24,10.05-6.47s7.86,4.92,7,9.27C437.24,52.61,437.2,52.79,437.16,53Z" transform="translate(-13.09 -10.26)" style="fill:#eb4847"/><path d="M402.66,51.39,358.81,247.27a2.13,2.13,0,0,1-2.52,1.53,2,2,0,0,1-1.69-2.21l31-197.95c.68-4.36,5.07-7.39,9.81-6.76s8,4.68,7.35,9C402.72,51.07,402.69,51.25,402.66,51.39Z" transform="translate(-13.09 -10.26)" style="fill:#eb4847"/><path d="M347.34,366.7c5.05,4.18,7.87,8.85,7.87,13.78,0,17.95-37.5,32.51-83.76,32.51s-83.75-14.56-83.75-32.51c0-5.34,3.31-10.38,9.19-14.82L250.54,381a80.72,80.72,0,0,0,42.82.29Z" transform="translate(-13.09 -10.26)" style="fill:#4d4d4d"/><path d="M398.53,260.24c-21.77,10.64-45.4,17.93-69.45,23.32-12.05,2.65-24.27,4.76-36.6,6.24s-24.78,2.24-37.25,2.5a376.76,376.76,0,0,1-74.67-6.08,382.88,382.88,0,0,1-71.84-21.06l12.62-9.94h0c.58,2.1,1.44,4.67,2.29,7s1.82,4.81,2.8,7.19c2,4.77,4.18,9.5,6.56,14.15a200.44,200.44,0,0,0,16.43,26.89A198.16,198.16,0,0,0,170,334.82a182.92,182.92,0,0,0,24.9,20.64,174.61,174.61,0,0,0,28.67,16l3.8,1.67,3.88,1.49,3.88,1.5,3.9,1.3a109.63,109.63,0,0,0,16.08,3.7,114.91,114.91,0,0,0,33.23,0,156.17,156.17,0,0,0,32.25-8.53c20.88-7.82,40-19.48,57.49-32.68a297,297,0,0,0,24.72-21.44c1.94-1.89,3.85-3.8,5.7-5.73l2.64-2.82,2.31-2.95c3.22-4.21,6.29-8.57,9.2-13,11.63-17.66,21.13-36.77,25.34-56.24,2.11-9.68,2.62-19.46.87-28.43a44.82,44.82,0,0,0-12.12-23.41L458.15,180a20.19,20.19,0,0,1-.66,3c-.24.8-.48,1.57-.74,2.32-.53,1.48-1.1,2.89-1.71,4.26a59.67,59.67,0,0,1-4.24,7.76A81,81,0,0,1,440,210.69,98.05,98.05,0,0,1,427.1,221.5l-3.42,2.41-3.54,2.2c-2.32,1.52-4.8,2.76-7.21,4.1-19.62,10.25-40.82,15.68-61.85,19.81a494.88,494.88,0,0,1-63.73,8c-5.34.38-10.68.7-16,.84s-10.67.49-16.09.51l-8.1.14-2,0-1,0h-.67l-.31,0h-.27l-4.09-.21c-5.4-.31-10.75-.71-16.1-1.19-21.41-2-42.75-5-64.17-10.52-10.67-2.94-21.37-6.5-32-12.13a67.11,67.11,0,0,1-15.39-11.22,41.41,41.41,0,0,1-6.54-8.53,32.5,32.5,0,0,1-3.85-10.86,23.81,23.81,0,0,1,.79-11.68,24.19,24.19,0,0,1,6.27-9.5,64.8,64.8,0,0,1,8-6.3,81.83,81.83,0,0,1,7.66-4.9c10.34-5.58,20.91-8.67,31.41-11.24a307.8,307.8,0,0,1,31.58-5.68c10.54-1.36,21.07-2.45,31.59-3.14a283.83,283.83,0,0,0-59.56,18c-9.22,4.1-18.11,9-24.85,14.81a27,27,0,0,0-4.32,4.55,10.64,10.64,0,0,0-1.87,5,14.9,14.9,0,0,0,.26,3.87c.16,1,.06,1.79.15,2.78.18,1.82,1.15,3.9,3.36,6.32a41.12,41.12,0,0,0,9.14,6.95c7.41,4.44,16.47,8,25.8,11.07,18.74,6.23,39,10.44,59.25,13.73,5.08.81,10.18,1.56,15.27,2.21l3.77.46.22,0c.08,0,0,0-.06,0h.08l.48,0,1,.06,1.92.12,7.69.47c5.11.37,10.3.56,15.49.68s10.37.22,15.55.18c20.71-.17,41.51-1.38,61.61-5.43a189.44,189.44,0,0,0,29.26-8.29,138.08,138.08,0,0,0,26.46-12.9c8-5.16,15.4-11.11,20.74-18.1a50,50,0,0,0,6.69-10.81,38.8,38.8,0,0,0,2-5.58,26.78,26.78,0,0,0,.58-2.7l.14-1.23c0-.28.06-.95,0-.61l21.38-5.92a66.81,66.81,0,0,1,13.91,34.69c1.2,12.11-.78,23.79-4,34.7a156.15,156.15,0,0,1-13.42,31,248,248,0,0,1-18.24,28.08c-3.35,4.47-6.83,8.84-10.52,13.13l-1.4,1.6-1.57,1.74c-1.16,1.17-2.1,2.06-3.16,3.06q-3.12,2.92-6.3,5.72a314.51,314.51,0,0,1-26.76,21c-18.46,13.21-38.61,24.62-60.5,32.67a165.7,165.7,0,0,1-34.13,8.58,133.33,133.33,0,0,1-35.59.37A119.42,119.42,0,0,1,236.42,385c-2.88-.82-5.66-1.75-8.41-2.72l-4.15-1.43-4.07-1.62a186.13,186.13,0,0,1-31-15.83,211.09,211.09,0,0,1-50.6-45.61A247.23,247.23,0,0,1,119,290.19q-4.32-7.19-8.09-14.67c-1.25-2.5-2.47-5-3.64-7.58s-2.26-5-3.37-8h0l-5.54-18.34,18.16,8.4a375.13,375.13,0,0,0,67.25,23.55,362.29,362.29,0,0,0,71.58,9.75A382.94,382.94,0,0,0,328,278.88c12-1.9,24-4.33,35.78-7.41A284.35,284.35,0,0,0,398.53,260.24Z" transform="translate(-13.09 -10.26)" style="fill:#3f3f3f"/><path d="M57.45,497.59a29.33,29.33,0,0,1-.5,4.31q-.6,3.53-4.33,3.52a7.78,7.78,0,0,1-4.68-2.15q-11.4-9.47-25.73-26.55-.18,7.09-.18,8.7c0,1.44,0,3.6.1,6.5s.11,5.05.11,6.49q0,8.05-4.27,8a4.83,4.83,0,0,1-3.46-1.23,3.51,3.51,0,0,1-1.16-2.64c0-.73.07-1.83.19-3.31s.2-2.57.2-3.3q0-1.61.12-4.83c.08-2.14.11-3.75.11-4.83s0-2.87-.08-5.18-.09-4-.09-5.19a48.54,48.54,0,0,0-.36-4.88,47.68,47.68,0,0,1-.35-4.88,3.74,3.74,0,0,1,1.52-2.92A5.25,5.25,0,0,1,18.09,462q2.19,0,4.86,3.5,13.44,17.67,26.53,28.84c0-.58,0-2,0-4.15q0-13.46-.29-18.14c0-.53-.17-1.51-.39-2.95a20.33,20.33,0,0,1-.29-3q0-3.76,4.32-3.77,4.83,0,4.83,13.73c0,.2,0,1.63-.06,4.31Q57.45,494.21,57.45,497.59Z" transform="translate(-13.09 -10.26)" style="fill:#333"/><path d="M83.21,506a24.11,24.11,0,0,1-14.92-4.64,15.41,15.41,0,0,1-6.58-12.85A26,26,0,0,1,68,471.56,22.14,22.14,0,0,1,85.85,463q10.34,0,15.49,4.36t5.15,13.13a26.84,26.84,0,0,1-5.8,16.8A21,21,0,0,1,83.21,506Zm2.64-35.61q-6.6,0-11.31,5.89a19.13,19.13,0,0,0-4.42,12.23A8.79,8.79,0,0,0,74,495.85a15.13,15.13,0,0,0,9.26,2.72q6.53,0,10.87-5.89a19.92,19.92,0,0,0,4-12.22q0-5.73-2.78-8T85.85,470.36Z" transform="translate(-13.09 -10.26)" style="fill:#333"/><path d="M131.64,506a24.12,24.12,0,0,1-14.93-4.64,15.41,15.41,0,0,1-6.58-12.85,26,26,0,0,1,6.31-16.92A22.14,22.14,0,0,1,134.27,463q10.33,0,15.49,4.36t5.15,13.13a26.84,26.84,0,0,1-5.8,16.8A21,21,0,0,1,131.64,506Zm2.63-35.61q-6.6,0-11.31,5.89a19.12,19.12,0,0,0-4.41,12.23,8.78,8.78,0,0,0,3.82,7.37,15.14,15.14,0,0,0,9.27,2.72q6.51,0,10.86-5.89a19.92,19.92,0,0,0,4-12.22q0-5.73-2.78-8T134.27,470.36Z" transform="translate(-13.09 -10.26)" style="fill:#333"/><path d="M165.13,504.58a4.29,4.29,0,0,1-2.93-1.11,3.39,3.39,0,0,1-1.19-2.6c0-1.82.1-4.55.28-8.19s.29-6.37.29-8.18q0-3-.14-9.09t-.13-9.09a4.22,4.22,0,0,1,1.57-3,4.81,4.81,0,0,1,3.35-1.48,19,19,0,0,1,4.91,1.69q4.59,2,5.45,2.26a38.71,38.71,0,0,1,14.81,8q7.31,6.46,7.31,14.29a17.44,17.44,0,0,1-2.51,9,19.34,19.34,0,0,1-6.9,7Q184.38,507,175.47,507a25.5,25.5,0,0,1-5-.58A18,18,0,0,1,165.13,504.58Zm16.64-28.05a101.82,101.82,0,0,0-12.32-5.24v27a9.21,9.21,0,0,0,2.65,1,15.53,15.53,0,0,0,3.34.34q6.39,0,9.18-1.64a11.72,11.72,0,0,0,4.19-4.23,11,11,0,0,0,1.55-5.57Q190.36,481.47,181.77,476.53Z" transform="translate(-13.09 -10.26)" style="fill:#333"/><path d="M231.41,503.27a52.2,52.2,0,0,1-10.81,2.54,74.68,74.68,0,0,1-11,1q-7.26,0-7.25-5.86c0,.3.19-2.58.59-8.65q.77-11.85.77-26.36a3.49,3.49,0,0,1,1.17-2.65,4.13,4.13,0,0,1,2.94-1.09,4.2,4.2,0,0,1,3,1.09A3.47,3.47,0,0,1,212,466q0,14.53-.8,26.79c-.18,1.46-.36,3.69-.56,6.69q7-.12,18-3.17a5.18,5.18,0,0,1,1.31-.19,3.91,3.91,0,0,1,3,1.26,3.56,3.56,0,0,1-1.54,5.92Z" transform="translate(-13.09 -10.26)" style="fill:#333"/><path d="M266.8,469.32a5.1,5.1,0,0,1-1.25-.16,38.27,38.27,0,0,0-9.32-1.2,37.17,37.17,0,0,0-4.77.33c-1.7.22-3.51.54-5.42,1q0,3.63-.27,10.78,1.66-.12,11.58-1,5.65-.53,7.17-.52a4.57,4.57,0,0,1,3,1,3.35,3.35,0,0,1,1.24,2.72q0,3.24-3.76,3.68-2.37.17-7.08.55-4.2.43-12.67,1.06c-.14,2.31-.21,4.18-.21,5.59q0,5.36.68,6.09c.22.24,1.46.35,3.73.35,1.23,0,3.07,0,5.54-.08s4.32-.08,5.54-.08a13.37,13.37,0,0,0,1.75-.16,13.65,13.65,0,0,1,1.71-.17,4.8,4.8,0,0,1,2.94.9,3.33,3.33,0,0,1,1.39,2.84q0,3.06-3.47,3.66a90.76,90.76,0,0,1-12.29.52q-9.65,0-12.58-2.41-3.22-2.64-3.23-11.46,0-3.64.58-11t.57-11a19.21,19.21,0,0,0-.29-2.83,19.3,19.3,0,0,1-.3-2.82q0-4.15,4.15-4.15a4.49,4.49,0,0,1,2.4.68c2.29-.52,4.46-.92,6.53-1.18a45.06,45.06,0,0,1,5.85-.4,36.84,36.84,0,0,1,11.93,1.58,3.54,3.54,0,0,1,1.66,6A4,4,0,0,1,266.8,469.32Z" transform="translate(-13.09 -10.26)" style="fill:#333"/><path d="M288.74,506q-7.51,0-11.84-3.08-3.64-2.56-3.65-5.93a3.9,3.9,0,0,1,1.13-2.85,4.21,4.21,0,0,1,3.11-1.13,4.11,4.11,0,0,1,3.91,2.51q1.68,3.36,7.64,3.36a24.65,24.65,0,0,0,9.86-2.05q5-2.1,5-4.61a4.37,4.37,0,0,0-3.08-4.53c-1.46-.53-4.4-.84-8.8-.93a25.43,25.43,0,0,1-9.18-1.77q-5.48-2.26-5.39-6.5.09-5.31,6.16-9.75A22.23,22.23,0,0,1,297,464.28a27,27,0,0,1,7.16,1.22c3.54,1,5.3,2.2,5.3,3.52a3.47,3.47,0,0,1-1.06,2.51,4.05,4.05,0,0,1-3.05,1.23,23.8,23.8,0,0,1-4.16-.54,23.33,23.33,0,0,0-4.19-.55,16.74,16.74,0,0,0-7.26,1.69q-3.56,1.69-3.55,3.69a2,2,0,0,0,1.08,1.7,8.18,8.18,0,0,0,3.24.94l7.55.38q6.58.46,10.4,3.42a10.83,10.83,0,0,1,4.2,9.05q0,7.05-8.7,10.67A39.23,39.23,0,0,1,288.74,506Z" transform="translate(-13.09 -10.26)" style="fill:#333"/><path d="M384.64,466.29a12.33,12.33,0,0,0-.6,3.48c0,.51-.05,1.3-.16,2.37s-.16,1.86-.16,2.37q0,2.6-.3,7.73c-.2,3.41-.29,6-.29,7.73,0,1.33.1,3.32.32,6s.33,4.64.33,6a3.3,3.3,0,0,1-1.16,2.55,4.09,4.09,0,0,1-2.87,1,4.69,4.69,0,0,1-3-1,3.08,3.08,0,0,1-1.27-2.49q0-2-.2-6t-.19-6c0-1,0-1.95.06-2.75a94.76,94.76,0,0,0-11.49,1.34q-5.68.94-11.37,1.93c0,1.16-.18,3.08-.42,5.78q-.28,3.57-.29,5.84a3,3,0,0,1-1.16,2.37,4.35,4.35,0,0,1-2.87,1,4.16,4.16,0,0,1-2.87-1A3.16,3.16,0,0,1,343.5,502q0-2.7.52-8c.34-3.57.52-6.25.52-8,0-2.27.06-5.7.18-10.27s.17-8,.17-10.27a3.2,3.2,0,0,1,1.16-2.48,4.23,4.23,0,0,1,2.87-1,4.13,4.13,0,0,1,2.87,1,3.29,3.29,0,0,1,1.16,2.54c0,1.38-.06,3.46-.16,6.23s-.17,4.85-.17,6.24c0,.45-.07,1.32-.2,2.62a22.7,22.7,0,0,0-.15,2.75l11.37-2a91.6,91.6,0,0,1,11.49-1.26q.12-1.85.39-9.92a12.12,12.12,0,0,1,1.39-4.89c1.1-2.26,2.36-3.39,3.76-3.39a4.37,4.37,0,0,1,2.78,1,3.21,3.21,0,0,1,1.3,2.61A2.94,2.94,0,0,1,384.64,466.29Z" transform="translate(-13.09 -10.26)" style="fill:#333"/><path d="M410.05,506a24.12,24.12,0,0,1-14.93-4.64,15.4,15.4,0,0,1-6.57-12.85,26,26,0,0,1,6.3-16.92A22.15,22.15,0,0,1,412.68,463q10.33,0,15.49,4.36t5.15,13.13a26.84,26.84,0,0,1-5.8,16.8A21,21,0,0,1,410.05,506Zm2.63-35.61q-6.6,0-11.31,5.89A19.12,19.12,0,0,0,397,488.48a8.78,8.78,0,0,0,3.82,7.37,15.14,15.14,0,0,0,9.27,2.72q6.51,0,10.86-5.89a19.92,19.92,0,0,0,4-12.22c0-3.82-.92-6.48-2.78-8S417.2,470.36,412.68,470.36Z" transform="translate(-13.09 -10.26)" style="fill:#333"/><path d="M469.37,499.58a19,19,0,0,1-5.22,4.51,15,15,0,0,1-7.67,2.18q-7.55,0-11.22-2.63-7.75-5.55-7.76-19.27c0-.88.05-2.18.15-3.91s.15-3,.15-3.92c0-.69,0-1.74.05-3.12s.06-2.42.06-3.12a9.78,9.78,0,0,1,.86-4.05c.77-1.68,1.85-2.52,3.23-2.52a4.56,4.56,0,0,1,2.87,1,3.14,3.14,0,0,1,1.37,2.62c0,1,0,2.55-.05,4.61s0,3.6,0,4.63q0,1.27-.15,3.87t-.15,3.87a26.62,26.62,0,0,0,1.07,7.69c.83,2.84,2,4.81,3.64,5.93q1.24.88,5.92.94,7.81.11,10.55-12.28,1.41-6.42,1.42-18a5.14,5.14,0,0,1,1-2.95,4.39,4.39,0,0,1,3.8-1.88,3.53,3.53,0,0,1,3,1.37,3.59,3.59,0,0,1,.77,2.23,99.36,99.36,0,0,1-1.1,16.81A34,34,0,0,1,469.37,499.58Z" transform="translate(-13.09 -10.26)" style="fill:#333"/><path d="M496.79,506c-5,0-9-1-11.85-3.08q-3.65-2.56-3.64-5.93a3.9,3.9,0,0,1,1.13-2.85,4.19,4.19,0,0,1,3.1-1.13,4.11,4.11,0,0,1,3.91,2.51q1.69,3.36,7.64,3.36A24.7,24.7,0,0,0,507,496.8q4.94-2.1,4.94-4.61a4.36,4.36,0,0,0-3.08-4.53q-2.19-.8-8.79-.93a25.35,25.35,0,0,1-9.18-1.77q-5.49-2.26-5.39-6.5.09-5.31,6.16-9.75A22.2,22.2,0,0,1,505,464.28a27.05,27.05,0,0,1,7.17,1.22c3.53,1,5.3,2.2,5.3,3.52a3.48,3.48,0,0,1-1.07,2.51,4,4,0,0,1-3,1.23,24,24,0,0,1-4.16-.54,23.12,23.12,0,0,0-4.19-.55,16.73,16.73,0,0,0-7.25,1.69q-3.56,1.69-3.56,3.69a2,2,0,0,0,1.08,1.7,8.24,8.24,0,0,0,3.25.94l7.55.38q6.57.46,10.39,3.42a10.82,10.82,0,0,1,4.21,9.05q0,7.05-8.71,10.67A39.18,39.18,0,0,1,496.79,506Z" transform="translate(-13.09 -10.26)" style="fill:#333"/><path d="M554.77,469.32a5.09,5.09,0,0,1-1.24-.16,38.41,38.41,0,0,0-9.33-1.2,37.29,37.29,0,0,0-4.77.33c-1.69.22-3.5.54-5.42,1,0,2.42-.08,6-.26,10.78q1.65-.12,11.58-1,5.65-.53,7.16-.52a4.58,4.58,0,0,1,3,1,3.38,3.38,0,0,1,1.24,2.72q0,3.24-3.76,3.68-2.37.17-7.08.55-4.2.43-12.67,1.06c-.14,2.31-.21,4.18-.21,5.59,0,3.57.22,5.6.68,6.09.22.24,1.46.35,3.73.35,1.22,0,3.07,0,5.54-.08s4.31-.08,5.54-.08a13.25,13.25,0,0,0,1.74-.16,13.77,13.77,0,0,1,1.72-.17,4.77,4.77,0,0,1,2.93.9,3.32,3.32,0,0,1,1.4,2.84q0,3.06-3.47,3.66a90.76,90.76,0,0,1-12.29.52q-9.66,0-12.59-2.41-3.23-2.64-3.22-11.46,0-3.64.57-11t.58-11a19.54,19.54,0,0,0-.3-2.83,20.46,20.46,0,0,1-.29-2.82q0-4.15,4.14-4.15a4.49,4.49,0,0,1,2.4.68c2.29-.52,4.47-.92,6.53-1.18a45.3,45.3,0,0,1,5.85-.4,36.86,36.86,0,0,1,11.94,1.58,3.55,3.55,0,0,1,1.66,6A4,4,0,0,1,554.77,469.32Z" transform="translate(-13.09 -10.26)" style="fill:#333"/></svg>