<svg id="Layer_1" data-name="Layer 1" xmlns="http://www.w3.org/2000/svg" viewBox="0 0 995.65 983.59"><title>LogoW</title><path d="M441.19,497.08a5.27,5.27,0,0,1-3.26-1.13c-23.59-18.59-34.72-40.19-32.2-62.49,3-26.94,26.33-52,65.57-70.57,68.22-32.29,179.23-32.29,247.46,0C746.66,376.1,762,394.12,762,413.65s-15.37,37.55-43.27,50.76c-44.11,20.88-115.88,20.89-160,0C540.2,455.63,530,443.48,530,430.21s10.23-25.42,28.78-34.2c28.68-13.58,75.34-13.58,104,0,12.58,5.95,19.5,14.33,19.5,23.6s-6.92,17.65-19.5,23.6c-19.12,9.06-49.08,9.06-68.2,0a5.27,5.27,0,0,1,4.51-9.52c16,7.59,43.15,7.59,59.18,0,8.57-4.05,13.48-9.18,13.48-14.08s-4.91-10-13.48-14.08c-26.19-12.4-68.81-12.4-95,0-14.46,6.84-22.75,15.84-22.75,24.68s8.29,17.83,22.75,24.68c41.63,19.7,109.35,19.7,151,0,24-11.37,37.24-26,37.24-41.24s-13.23-29.87-37.24-41.24c-65.74-31.12-172.7-31.12-238.44,0-35.82,17-57,39.06-59.61,62.24-2.09,18.48,7.68,36.81,28.25,53a5.27,5.27,0,0,1-3.26,9.41Z" transform="translate(-85.2 -43.81)" style="fill:#eb4847"/><path d="M250.94,307.22a13.18,13.18,0,0,1-4.73-25.47C330.47,249.34,659.1,52.38,662.41,50.39l11-6.58,6.9,10.77c71.68,111.94,239,200.36,240.65,201.24a13.17,13.17,0,0,1-12.22,23.34c-6.9-3.62-165.16-87.29-243.51-199.74-58.69,35-330.94,196.69-409.53,226.92A13.29,13.29,0,0,1,250.94,307.22Z" transform="translate(-85.2 -43.81)" style="fill:#fff"/><path d="M348.42,263.75H322.07v-98.4a21,21,0,0,1,11.27-18.74l60.8-31.81a20.53,20.53,0,0,1,20.27.64,21,21,0,0,1,10.15,18.1v81.87H398.21v-73l-49.79,26Z" transform="translate(-85.2 -43.81)" style="fill:#fff"/><path d="M888.82,98.34l-90,369.73a3.9,3.9,0,0,1-7.62-1.61L857.89,91.83A15.81,15.81,0,1,1,889,97.37C889,97.68,888.9,98,888.82,98.34Z" transform="translate(-85.2 -43.81)" style="fill:#eb4847"/><path d="M795.88,125.27l-80,387.84a3.89,3.89,0,0,1-7.67-1.34l56.51-391.95a15.82,15.82,0,0,1,31.31,4.51C796,124.63,795.94,125,795.88,125.27Z" transform="translate(-85.2 -43.81)" style="fill:#eb4847"/><path d="M695,749.58c9.21,8.29,14.36,17.53,14.36,27.29,0,35.55-68.41,64.37-152.79,64.37s-152.8-28.82-152.8-64.37c0-10.57,6.05-20.54,16.76-29.34l97.88,30.36a136.08,136.08,0,0,0,78.12.59Z" transform="translate(-85.2 -43.81)" style="fill:#e6e6e6"/><path d="M788.37,538.78c-39.73,21.07-82.84,35.5-126.71,46.18a648.35,648.35,0,0,1-66.77,12.36,658.49,658.49,0,0,1-67.95,4.95,634.69,634.69,0,0,1-136.22-12,656.48,656.48,0,0,1-131-41.7l23-19.68h0c1.07,4.16,2.64,9.25,4.19,13.91s3.31,9.5,5.1,14.23c3.64,9.45,7.63,18.81,12,28a403.68,403.68,0,0,0,30,53.25,386.55,386.55,0,0,0,37.6,48.21,341.25,341.25,0,0,0,45.42,40.87A312.26,312.26,0,0,0,469.24,759l6.92,3.31,7.08,3,7.09,3,7.11,2.57a185.91,185.91,0,0,0,29.33,7.35c19.94,3.4,40.48,3,60.62.05a267.31,267.31,0,0,0,58.84-16.88c38.09-15.49,72.93-38.59,104.89-64.72a560.32,560.32,0,0,0,45.08-42.45c3.54-3.74,7-7.52,10.4-11.34l4.83-5.6,4.21-5.83c5.86-8.34,11.46-17,16.78-25.73,21.22-35,38.55-72.81,46.23-111.34,3.83-19.17,4.78-38.54,1.59-56.3s-10.63-33.68-22.12-46.36l39-11.72a45.13,45.13,0,0,1-1.2,5.91c-.43,1.58-.87,3.1-1.35,4.58-1,2.93-2,5.72-3.12,8.45a121.68,121.68,0,0,1-7.73,15.35,158.56,158.56,0,0,1-19.67,26.45,182.6,182.6,0,0,1-23.58,21.42l-6.23,4.76-6.46,4.36c-4.24,3-8.75,5.47-13.15,8.12-35.79,20.3-74.46,31.05-112.83,39.23s-77.32,13.09-116.26,15.89c-9.74.75-19.48,1.38-29.22,1.66s-19.48,1-29.36,1l-14.79.27-3.69.07-1.86,0-.92,0h-.3l-.56,0-.49,0-7.46-.41c-9.85-.61-19.61-1.4-29.38-2.35-39-3.92-78-9.87-117-20.84-19.48-5.81-39-12.86-58.35-24A122.71,122.71,0,0,1,264,467.63a80.82,80.82,0,0,1-11.92-16.89,67.34,67.34,0,0,1-7-21.51,51.09,51.09,0,0,1,1.43-23.12A48.68,48.68,0,0,1,258,387.29a120.12,120.12,0,0,1,14.56-12.46,149,149,0,0,1,14-9.71c18.87-11.05,38.13-17.16,57.3-22.25a523.49,523.49,0,0,1,57.62-11.25c19.22-2.69,38.42-4.85,57.62-6.23-37.61,7.82-74.64,19.52-108.66,35.57-16.82,8.11-33,17.78-45.33,29.33a51.7,51.7,0,0,0-7.89,9,22.27,22.27,0,0,0-3.4,10,31.41,31.41,0,0,0,.47,7.66c.28,1.88.1,3.55.27,5.51.33,3.59,2.1,7.72,6.13,12.5a76,76,0,0,0,16.68,13.77c13.52,8.79,30,15.9,47.06,21.92,34.18,12.33,71.07,20.66,108.09,27.18,9.26,1.61,18.58,3.09,27.85,4.38l6.88.91.41.05h0l.87.06,1.75.12,3.51.23,14,.94c9.32.72,18.79,1.1,28.26,1.35s18.92.43,28.38.35c37.76-.34,75.71-2.74,112.38-10.76a326.6,326.6,0,0,0,53.38-16.4c17.14-6.92,33.55-15.29,48.27-25.55s28.09-22,37.85-35.84a101.49,101.49,0,0,0,12.2-21.4,82,82,0,0,0,3.7-11.06c.42-1.82.84-3.61,1.06-5.34l.26-2.43c0-.56.1-1.89-.07-1.21l39-11.72a138.91,138.91,0,0,1,25.38,68.68c2.19,24-1.44,47.11-7.31,68.72s-14.55,42-24.48,61.37a497.15,497.15,0,0,1-33.26,55.6c-6.11,8.86-12.47,17.52-19.19,26l-2.56,3.18-2.87,3.44c-2.11,2.31-3.83,4.08-5.77,6.07q-5.67,5.78-11.49,11.31a576.5,576.5,0,0,1-48.82,41.5c-33.67,26.17-70.43,48.76-110.37,64.69a281.9,281.9,0,0,1-62.25,17,223.84,223.84,0,0,1-64.93.74,202.53,202.53,0,0,1-32-7c-5.24-1.63-10.33-3.46-15.34-5.39l-7.57-2.83-7.42-3.2A330.57,330.57,0,0,1,405.72,743c-35.56-24.61-66.53-55.62-92.31-90.3a493.64,493.64,0,0,1-35.05-54.59q-7.89-14.21-14.77-29c-2.27-5-4.49-9.94-6.63-15s-4.12-10-6.14-15.85h0L240.7,501.86l33.13,16.64a650.14,650.14,0,0,0,122.69,46.63,612.63,612.63,0,0,0,130.57,19.3,645.11,645.11,0,0,0,132.67-8.74A621.32,621.32,0,0,0,725,561C746.49,554.8,767.87,547.94,788.37,538.78Z" transform="translate(-85.2 -43.81)" style="fill:#fff"/><path d="M166.13,1008.76a62,62,0,0,1-.92,8.53q-1.08,7-7.89,7-3.78,0-8.53-4.27-20.81-18.74-46.95-52.56-.33,14-.33,17.23,0,4.27.19,12.86t.19,12.86q0,15.93-7.78,15.94a8.44,8.44,0,0,1-6.32-2.44,7.2,7.2,0,0,1-2.11-5.24q0-2.16.35-6.53c.24-2.92.35-5.1.35-6.54,0-2.13.08-5.31.22-9.56s.22-7.44.22-9.57-.06-5.69-.16-10.26-.17-8-.17-10.27-.21-5.38-.65-9.67-.64-7.51-.64-9.67A7.63,7.63,0,0,1,88,940.79a9.16,9.16,0,0,1,6.35-2.54q4,0,8.86,6.92,24.53,35,48.4,57.1.06-1.72.06-8.21,0-26.64-.54-35.93c-.07-1-.31-3-.7-5.83a44.65,44.65,0,0,1-.54-5.94q0-7.46,7.88-7.46,8.81,0,8.81,27.18c0,.39,0,3.24-.11,8.53Q166.14,1002.06,166.13,1008.76Z" transform="translate(-85.2 -43.81)" style="fill:#f2f2f2"/><path d="M213.13,1025.34q-16,0-27.23-9.18a31.41,31.41,0,0,1-12-25.45,54,54,0,0,1,11.51-33.49q12.9-17,32.52-17,18.85,0,28.26,8.64t9.4,26A56.15,56.15,0,0,1,245,1008.11Q232.8,1025.35,213.13,1025.34Zm4.81-70.5q-12,0-20.64,11.67a39.78,39.78,0,0,0-8.05,24.2,17.87,17.87,0,0,0,7,14.59q6.71,5.4,16.91,5.4Q225,1010.7,233,999a41.79,41.79,0,0,0,7.29-24.2q0-11.36-5.08-15.78Q230.31,954.84,217.94,954.84Z" transform="translate(-85.2 -43.81)" style="fill:#f2f2f2"/><path d="M301.46,1025.34q-16,0-27.22-9.18a31.39,31.39,0,0,1-12-25.45,54,54,0,0,1,11.51-33.49q12.92-17,32.52-17,18.86,0,28.26,8.64t9.4,26a56.15,56.15,0,0,1-10.59,33.28Q321.13,1025.35,301.46,1025.34Zm4.81-70.5q-12,0-20.64,11.67a39.85,39.85,0,0,0-8.05,24.2,17.89,17.89,0,0,0,7,14.59q6.7,5.4,16.91,5.4,11.9,0,19.83-11.67a41.8,41.8,0,0,0,7.3-24.2q0-11.36-5.08-15.78Q318.65,954.84,306.27,954.84Z" transform="translate(-85.2 -43.81)" style="fill:#f2f2f2"/><path d="M362.57,1022.59a7.53,7.53,0,0,1-5.35-2.19,7,7,0,0,1-2.16-5.16q0-5.4.51-16.21t.52-16.21q0-6-.25-18t-.24-18q0-3,2.86-5.92a8.49,8.49,0,0,1,6.11-2.94q1.79,0,9,3.35,8.37,4,9.94,4.49a69.07,69.07,0,0,1,27,15.88q13.35,12.81,13.34,28.31a38.34,38.34,0,0,1-17.18,31.55q-9,5.84-25.23,5.84a42.39,42.39,0,0,1-9.07-1.14A31.45,31.45,0,0,1,362.57,1022.59Zm30.36-55.54q-5.24-3.3-22.47-10.38v53.49a15.94,15.94,0,0,0,4.83,2,25.38,25.38,0,0,0,6.08.67q11.67,0,16.75-3.24a22.15,22.15,0,0,0,7.64-8.37,23.07,23.07,0,0,0,2.84-11Q408.6,976.82,392.93,967.05Z" transform="translate(-85.2 -43.81)" style="fill:#f2f2f2"/><path d="M483.48,1020q-6.37,2.82-19.72,5a125.5,125.5,0,0,1-20,2q-13.25,0-13.24-11.61,0,.91,1.08-17.13Q433,974.89,433,946.14a7.33,7.33,0,0,1,7.5-7.4,7.33,7.33,0,0,1,5.41,2.16,7.14,7.14,0,0,1,2.16,5.24q0,28.8-1.46,53.05-.48,4.34-1,13.24,12.81-.21,32.85-6.27a8.22,8.22,0,0,1,2.38-.37,6.87,6.87,0,0,1,5.51,2.48,7.46,7.46,0,0,1,1.89,5Q488.18,1017.89,483.48,1020Z" transform="translate(-85.2 -43.81)" style="fill:#f2f2f2"/><path d="M548,952.79a8.48,8.48,0,0,1-2.27-.33,65,65,0,0,0-17-2.38,63.32,63.32,0,0,0-8.69.65,95,95,0,0,0-9.89,1.95q0,7.19-.49,21.34,3-.22,21.13-2,10.32-1,13.07-1a7.91,7.91,0,0,1,5.46,2,6.86,6.86,0,0,1,2.27,5.37q0,6.43-6.86,7.3-4.34.31-12.92,1.08-7.67.86-23.12,2.1-.37,6.87-.38,11.08,0,10.59,1.24,12,.6.71,6.81.7c2.24,0,5.6-.05,10.1-.16s7.87-.16,10.11-.16a22.58,22.58,0,0,0,3.19-.33,23.44,23.44,0,0,1,3.13-.32,8.26,8.26,0,0,1,5.35,1.78,6.75,6.75,0,0,1,2.54,5.62q0,6-6.32,7.24-5.41,1-22.43,1-17.61,0-23-4.76-5.88-5.24-5.89-22.69,0-7.25,1.06-21.75t1.05-21.69a42.3,42.3,0,0,0-.54-5.59,42.16,42.16,0,0,1-.54-5.59q0-8.22,7.56-8.21a7.65,7.65,0,0,1,4.38,1.35,112,112,0,0,1,11.91-2.35,78.27,78.27,0,0,1,10.67-.79q13.62,0,21.78,3.14,5,1.89,5,6.86a7.2,7.2,0,0,1-2,5A7,7,0,0,1,548,952.79Z" transform="translate(-85.2 -43.81)" style="fill:#f2f2f2"/><path d="M588.08,1025.34q-13.73,0-21.62-6.1-6.65-5.09-6.64-11.73a8,8,0,0,1,2-5.64,7.3,7.3,0,0,1,5.68-2.24q4.86,0,7.13,5,3.08,6.64,13.94,6.64a42.18,42.18,0,0,0,18-4q9-4.16,9-9.13,0-6.81-5.62-9c-2.67-1-8-1.66-16-1.84a43.09,43.09,0,0,1-16.74-3.51q-10-4.49-9.84-12.86.17-10.53,11.24-19.31A38.41,38.41,0,0,1,603,942.79a45.34,45.34,0,0,1,13.07,2.43q9.67,3,9.68,7a7.2,7.2,0,0,1-1.95,5,7.09,7.09,0,0,1-5.56,2.43,39.81,39.81,0,0,1-7.59-1.08,40.08,40.08,0,0,0-7.65-1.08,28.56,28.56,0,0,0-13.24,3.35c-4.32,2.23-6.48,4.67-6.48,7.29a4,4,0,0,0,2,3.38,14.5,14.5,0,0,0,5.92,1.87l13.78.75q12,.91,19,6.75,7.66,6.49,7.67,17.94,0,13.93-15.88,21.13Q603.64,1025.34,588.08,1025.34Z" transform="translate(-85.2 -43.81)" style="fill:#f2f2f2"/><path d="M763,946.77a26.74,26.74,0,0,0-1.08,6.89c0,1-.1,2.58-.29,4.7s-.3,3.68-.3,4.69q0,5.16-.54,15.31t-.54,15.29q0,4,.59,11.84t.6,11.83a6.79,6.79,0,0,1-2.11,5,7.18,7.18,0,0,1-5.24,2.06,8.1,8.1,0,0,1-5.51-2,6.33,6.33,0,0,1-2.33-4.95q0-3.93-.35-11.83t-.35-11.83c0-2,0-3.87.11-5.46a162.9,162.9,0,0,0-21,2.65q-10.38,1.89-20.75,3.84-.11,3.42-.75,11.45c-.36,4.7-.54,8.56-.54,11.55a6.12,6.12,0,0,1-2.11,4.69,7.49,7.49,0,0,1-5.24,1.91,7.28,7.28,0,0,1-5.24-2,6.49,6.49,0,0,1-2.11-4.9q0-5.32.95-15.93t.94-15.93q0-6.75.33-20.33t.32-20.33a6.52,6.52,0,0,1,2.11-4.91,7.32,7.32,0,0,1,5.24-2,7.21,7.21,0,0,1,5.24,2,6.77,6.77,0,0,1,2.1,5q0,4.1-.29,12.34t-.3,12.35c0,.9-.13,2.63-.38,5.18a52.76,52.76,0,0,0-.27,5.46l20.75-3.89a153.86,153.86,0,0,1,21-2.48q.21-3.66.7-19.66a26,26,0,0,1,2.54-9.67q3-6.7,6.86-6.71a7.55,7.55,0,0,1,5.08,1.9,6.52,6.52,0,0,1,2.38,5.15A6,6,0,0,1,763,946.77Z" transform="translate(-85.2 -43.81)" style="fill:#f2f2f2"/><path d="M809.37,1025.34q-16,0-27.23-9.18a31.39,31.39,0,0,1-12-25.45,54,54,0,0,1,11.51-33.49q12.92-17,32.53-17,18.86,0,28.25,8.64t9.4,26a56.15,56.15,0,0,1-10.59,33.28Q829,1025.35,809.37,1025.34Zm4.81-70.5q-12.06,0-20.64,11.67a39.78,39.78,0,0,0-8,24.2,17.87,17.87,0,0,0,7,14.59q6.69,5.4,16.91,5.4,11.88,0,19.83-11.67a41.79,41.79,0,0,0,7.29-24.2q0-11.36-5.08-15.78Q826.55,954.84,814.18,954.84Z" transform="translate(-85.2 -43.81)" style="fill:#f2f2f2"/><path d="M917.58,1012.7a35.37,35.37,0,0,1-9.51,8.91,25.7,25.7,0,0,1-14,4.33q-13.77,0-20.47-5.21-14.16-11-14.16-38.15,0-2.61.27-7.75c.18-3.43.27-6,.27-7.75q0-2.07.11-6.18t.11-6.19a20.72,20.72,0,0,1,1.56-8q2.12-5,5.89-5a8,8,0,0,1,5.24,1.9,6.36,6.36,0,0,1,2.49,5.18q0,3-.08,9.13c-.06,4.07-.08,7.13-.08,9.17q0,2.53-.27,7.67c-.18,3.42-.27,6-.27,7.67a56.79,56.79,0,0,0,1.94,15.22q2.26,8.42,6.65,11.74,2.26,1.74,10.8,1.85,14.26.22,19.23-24.31,2.6-12.69,2.6-35.66a10.72,10.72,0,0,1,1.78-5.83,7.78,7.78,0,0,1,6.92-3.73,6.23,6.23,0,0,1,5.51,2.7,7.57,7.57,0,0,1,1.4,4.43q0,21.35-2,33.28Q926.51,1000.54,917.58,1012.7Z" transform="translate(-85.2 -43.81)" style="fill:#f2f2f2"/><path d="M967.61,1025.34q-13.73,0-21.61-6.1-6.64-5.09-6.64-11.73a8,8,0,0,1,2-5.64,7.29,7.29,0,0,1,5.67-2.24q4.86,0,7.13,5,3.09,6.64,13.94,6.64a42.15,42.15,0,0,0,18-4q9-4.16,9-9.13,0-6.81-5.62-9-4-1.56-16-1.84a43.18,43.18,0,0,1-16.75-3.51q-10-4.49-9.83-12.86.17-10.53,11.24-19.31a38.41,38.41,0,0,1,24.42-8.78,45.4,45.4,0,0,1,13.07,2.43q9.68,3,9.67,7a7.24,7.24,0,0,1-1.94,5,7.12,7.12,0,0,1-5.57,2.43,40,40,0,0,1-7.59-1.08,40,40,0,0,0-7.64-1.08,28.56,28.56,0,0,0-13.24,3.35c-4.32,2.23-6.48,4.67-6.48,7.29a3.93,3.93,0,0,0,2,3.38,14.45,14.45,0,0,0,5.92,1.87l13.77.75q12,.91,19,6.75,7.66,6.49,7.67,17.94,0,13.93-15.89,21.13Q983.18,1025.34,967.61,1025.34Z" transform="translate(-85.2 -43.81)" style="fill:#f2f2f2"/><path d="M1073.4,952.79a8.48,8.48,0,0,1-2.27-.33,65.06,65.06,0,0,0-17-2.38,63.57,63.57,0,0,0-8.7.65,95.54,95.54,0,0,0-9.89,1.95q0,7.19-.48,21.34,3-.22,21.12-2,10.32-1,13.08-1a7.9,7.9,0,0,1,5.45,2,6.86,6.86,0,0,1,2.27,5.37q0,6.43-6.86,7.3-4.32.31-12.91,1.08-7.68.86-23.13,2.1-.37,6.87-.37,11.08,0,10.59,1.24,12,.58.71,6.81.7,3.35,0,10.1-.16t10.1-.16a22.58,22.58,0,0,0,3.19-.33,23.59,23.59,0,0,1,3.13-.32,8.26,8.26,0,0,1,5.35,1.78,6.75,6.75,0,0,1,2.54,5.62q0,6-6.32,7.24-5.4,1-22.42,1-17.61,0-23-4.76-5.9-5.24-5.89-22.69,0-7.25,1.05-21.75t1.06-21.69a42.3,42.3,0,0,0-.54-5.59,42.55,42.55,0,0,1-.55-5.59q0-8.22,7.57-8.21a7.64,7.64,0,0,1,4.37,1.35,111.62,111.62,0,0,1,11.92-2.35,78.16,78.16,0,0,1,10.67-.79q13.61,0,21.77,3.14,5,1.89,5,6.86a7.24,7.24,0,0,1-1.94,5A7,7,0,0,1,1073.4,952.79Z" transform="translate(-85.2 -43.81)" style="fill:#f2f2f2"/></svg>